<svg width="142" height="65" viewBox="0 0 142 65" fill="none" xmlns="http://www.w3.org/2000/svg">
<path d="M0.82 49L8.733 23.498C9.03367 22.5413 9.58033 21.776 10.373 21.202C11.1657 20.6007 12.054 20.3 13.038 20.3H16.154C17.1653 20.3 18.0673 20.6007 18.86 21.202C19.6527 21.776 20.1993 22.5413 20.5 23.498L28.372 49H23.534L20.336 38.627H8.856L5.658 49H0.82ZM18.901 33.994L16.277 25.466C16.1403 25.1107 15.8807 24.933 15.498 24.933H13.817C13.3523 24.933 13.0653 25.1107 12.956 25.466L10.291 33.994H18.901ZM34.7235 28.5V43.424C34.7235 43.8613 34.7508 44.121 34.8055 44.203C34.8601 44.285 35.0925 44.326 35.5025 44.326H42.2675C42.5135 44.2987 42.9645 44.121 43.6205 43.793C44.3038 43.4377 45.0145 43.014 45.7525 42.522V28.5H50.4265V49H45.7525V47.934C45.1511 48.2347 44.5498 48.4943 43.9485 48.713C43.3471 48.9043 42.7868 49 42.2675 49H35.5025C33.7805 49 32.4411 48.508 31.4845 47.524C30.5278 46.54 30.0495 45.1733 30.0495 43.424V28.5H34.7235ZM70.2692 28.5L64.0372 38.75L70.2692 48.959L64.8162 49L61.3312 43.219L57.8462 49L52.3932 48.959L58.5842 38.75L52.3932 28.5H57.8462L61.3312 34.24L64.7752 28.5H70.2692Z" fill="white"/>
<path d="M67.0461 49.2259C67.1064 49.2453 67.169 49.2523 67.2303 49.2466C67.2916 49.2408 67.3504 49.2224 67.4034 49.1925C67.4563 49.1625 67.5023 49.1215 67.5387 49.0719C67.5752 49.0223 67.6014 48.965 67.6158 48.9033L67.9277 47.5775C67.9421 47.5159 67.9445 47.4511 67.9347 47.3868C67.925 47.3226 67.9032 47.2601 67.8708 47.203L67.1316 45.8977L64.7177 47.2647L65.4568 48.5699C65.4891 48.6271 65.5315 48.6779 65.5816 48.7194C65.6317 48.7608 65.6885 48.7921 65.7487 48.8114L67.0461 49.2259V49.2259ZM64.2249 46.3945L62.2539 42.9138L64.6679 41.5469L66.6389 45.0275L64.2249 46.3945ZM60.9565 42.4993L59.2319 39.4537C59.0359 39.1075 58.975 38.7035 59.0628 38.3306C59.1505 37.9576 59.3796 37.6462 59.6997 37.465L60.1021 37.2371L59.6093 36.367L60.414 35.9113L60.9067 36.7815L61.309 36.5537C61.6291 36.3724 62.014 36.3361 62.379 36.4527C62.7439 36.5693 63.0591 36.8293 63.2551 37.1754L64.9798 40.221L60.9565 42.4993Z" fill="#9747FF"/>
<path d="M87.0909 4.54545C85.8854 4.54545 84.7292 5.02435 83.8768 5.87679C83.0244 6.72923 82.5455 7.88538 82.5455 9.09091V40.9091C82.5455 42.1146 83.0244 43.2708 83.8768 44.1232C84.7292 44.9756 85.8854 45.4545 87.0909 45.4545H118.909C120.115 45.4545 121.271 44.9756 122.123 44.1232C122.976 43.2708 123.455 42.1146 123.455 40.9091V9.09091C123.455 7.88538 122.976 6.72923 122.123 5.87679C121.271 5.02435 120.115 4.54545 118.909 4.54545H87.0909ZM87.0909 0H118.909C121.32 0 123.632 0.95779 125.337 2.66267C127.042 4.36754 128 6.67985 128 9.09091V40.9091C128 43.3201 127.042 45.6325 125.337 47.3373C123.632 49.0422 121.32 50 118.909 50H87.0909C84.6798 50 82.3675 49.0422 80.6627 47.3373C78.9578 45.6325 78 43.3201 78 40.9091V9.09091C78 6.67985 78.9578 4.36754 80.6627 2.66267C82.3675 0.95779 84.6798 0 87.0909 0V0Z" fill="#C4A3EE"/>
<path d="M101.091 19.5455C99.8854 19.5455 98.7292 20.0243 97.8768 20.8768C97.0244 21.7292 96.5455 22.8854 96.5455 24.0909V55.9091C96.5455 57.1146 97.0244 58.2708 97.8768 59.1232C98.7292 59.9756 99.8854 60.4545 101.091 60.4545H132.909C134.115 60.4545 135.271 59.9756 136.123 59.1232C136.976 58.2708 137.455 57.1146 137.455 55.9091V24.0909C137.455 22.8854 136.976 21.7292 136.123 20.8768C135.271 20.0243 134.115 19.5455 132.909 19.5455H101.091ZM101.091 15H132.909C135.32 15 137.632 15.9578 139.337 17.6627C141.042 19.3675 142 21.6798 142 24.0909V55.9091C142 58.3202 141.042 60.6325 139.337 62.3373C137.632 64.0422 135.32 65 132.909 65H101.091C98.6798 65 96.3675 64.0422 94.6627 62.3373C92.9578 60.6325 92 58.3202 92 55.9091V24.0909C92 21.6798 92.9578 19.3675 94.6627 17.6627C96.3675 15.9578 98.6798 15 101.091 15Z" fill="#442783"/>
</svg>
