<svg width="52" height="52" viewBox="0 0 52 52" fill="none" xmlns="http://www.w3.org/2000/svg">
<path d="M19.5417 19.0896V32.9104C19.5417 33.9007 19.9938 34.6542 20.8979 35.1708C21.8021 35.6875 22.6847 35.6444 23.5458 35.0417L34.2667 28.1958C35.0847 27.6792 35.4938 26.9472 35.4938 26C35.4938 25.0528 35.0847 24.3208 34.2667 23.8042L23.5458 16.9583C22.6847 16.3555 21.8021 16.3125 20.8979 16.8292C19.9938 17.3458 19.5417 18.0993 19.5417 19.0896ZM26 51.8333C22.4264 51.8333 19.0681 51.1548 15.925 49.7977C12.782 48.4423 10.0479 46.6021 7.72292 44.2771C5.39792 41.9521 3.55773 39.218 2.20234 36.075C0.845228 32.9319 0.166672 29.5736 0.166672 26C0.166672 22.4264 0.845228 19.068 2.20234 15.925C3.55773 12.7819 5.39792 10.0479 7.72292 7.72291C10.0479 5.39791 12.782 3.55685 15.925 2.19974C19.0681 0.844351 22.4264 0.166656 26 0.166656C29.5736 0.166656 32.932 0.844351 36.075 2.19974C39.2181 3.55685 41.9521 5.39791 44.2771 7.72291C46.6021 10.0479 48.4423 12.7819 49.7977 15.925C51.1548 19.068 51.8333 22.4264 51.8333 26C51.8333 29.5736 51.1548 32.9319 49.7977 36.075C48.4423 39.218 46.6021 41.9521 44.2771 44.2771C41.9521 46.6021 39.2181 48.4423 36.075 49.7977C32.932 51.1548 29.5736 51.8333 26 51.8333Z" fill="#C4A3EE"/>
</svg>
